<mxfile host="app.diagrams.net" modified="2023-10-22T22:06:31.786Z" agent="Mozilla/5.0 (Windows NT 10.0; Win64; x64) AppleWebKit/537.36 (KHTML, like Gecko) Chrome/118.0.0.0 Safari/537.36" version="22.0.6" etag="ujF-tcJ5FpQT6MEFMFJq" type="device">
  <diagram id="Mqy0rWbELI4FM9el_y0E" name="Page-1">
    <mxGraphModel dx="1219" dy="1825" grid="1" gridSize="10" guides="1" tooltips="1" connect="1" arrows="1" fold="1" page="1" pageScale="1" pageWidth="850" pageHeight="1100" math="0" shadow="0">
      <root>
        <mxCell id="0" />
        <mxCell id="1" parent="0" />
        <mxCell id="RmB8I1O6AhFz0H0aJWPY-1" value="Card" style="swimlane;fontStyle=1;align=center;verticalAlign=top;childLayout=stackLayout;horizontal=1;startSize=26;horizontalStack=0;resizeParent=1;resizeParentMax=0;resizeLast=0;collapsible=1;marginBottom=0;whiteSpace=wrap;html=1;" parent="1" vertex="1">
          <mxGeometry x="130" y="990" width="240" height="200" as="geometry" />
        </mxCell>
        <mxCell id="RmB8I1O6AhFz0H0aJWPY-2" value="&lt;u&gt;- val: Values&lt;br&gt;- colour: Colours&lt;/u&gt;" style="text;strokeColor=none;fillColor=none;align=left;verticalAlign=top;spacingLeft=4;spacingRight=4;overflow=hidden;rotatable=0;points=[[0,0.5],[1,0.5]];portConstraint=eastwest;whiteSpace=wrap;html=1;" parent="RmB8I1O6AhFz0H0aJWPY-1" vertex="1">
          <mxGeometry y="26" width="240" height="44" as="geometry" />
        </mxCell>
        <mxCell id="RmB8I1O6AhFz0H0aJWPY-3" value="" style="line;strokeWidth=1;fillColor=none;align=left;verticalAlign=middle;spacingTop=-1;spacingLeft=3;spacingRight=3;rotatable=0;labelPosition=right;points=[];portConstraint=eastwest;strokeColor=inherit;" parent="RmB8I1O6AhFz0H0aJWPY-1" vertex="1">
          <mxGeometry y="70" width="240" height="8" as="geometry" />
        </mxCell>
        <mxCell id="RmB8I1O6AhFz0H0aJWPY-4" value="+ Card(val: Values, col: Colours)&lt;br&gt;+ getColour(): Colours&lt;br&gt;+ getVal(): Values&lt;br&gt;+ isNumbered(): boolean&lt;br&gt;+ isSpecial(): boolean&lt;br&gt;+ isWild(): boolean&lt;br&gt;+ toString(): String" style="text;strokeColor=none;fillColor=none;align=left;verticalAlign=top;spacingLeft=4;spacingRight=4;overflow=hidden;rotatable=0;points=[[0,0.5],[1,0.5]];portConstraint=eastwest;whiteSpace=wrap;html=1;" parent="RmB8I1O6AhFz0H0aJWPY-1" vertex="1">
          <mxGeometry y="78" width="240" height="122" as="geometry" />
        </mxCell>
        <mxCell id="RmB8I1O6AhFz0H0aJWPY-13" value="&lt;p style=&quot;margin:0px;margin-top:4px;text-align:center;&quot;&gt;&amp;lt;&amp;lt;enumeration&amp;gt;&amp;gt;&lt;br&gt;&lt;b&gt;Values&lt;/b&gt;&lt;/p&gt;&lt;hr&gt;&lt;p style=&quot;margin:0px;margin-left:8px;text-align:left;&quot;&gt;ONE&lt;/p&gt;&lt;p style=&quot;margin:0px;margin-left:8px;text-align:left;&quot;&gt;TWO&lt;/p&gt;&lt;p style=&quot;margin:0px;margin-left:8px;text-align:left;&quot;&gt;THREE&lt;/p&gt;&lt;p style=&quot;margin:0px;margin-left:8px;text-align:left;&quot;&gt;FOUR&lt;/p&gt;&lt;p style=&quot;margin:0px;margin-left:8px;text-align:left;&quot;&gt;FIVE&lt;/p&gt;&lt;p style=&quot;margin:0px;margin-left:8px;text-align:left;&quot;&gt;SIX&lt;/p&gt;&lt;p style=&quot;margin:0px;margin-left:8px;text-align:left;&quot;&gt;SEVEN&lt;/p&gt;&lt;p style=&quot;margin:0px;margin-left:8px;text-align:left;&quot;&gt;EIGHT&lt;/p&gt;&lt;p style=&quot;margin:0px;margin-left:8px;text-align:left;&quot;&gt;NINE&lt;/p&gt;&lt;p style=&quot;margin:0px;margin-left:8px;text-align:left;&quot;&gt;WILDPICK&lt;/p&gt;&lt;p style=&quot;margin:0px;margin-left:8px;text-align:left;&quot;&gt;WILDDRAW&lt;/p&gt;&lt;p style=&quot;margin:0px;margin-left:8px;text-align:left;&quot;&gt;REVERSE&lt;/p&gt;&lt;p style=&quot;margin:0px;margin-left:8px;text-align:left;&quot;&gt;SKIP&lt;/p&gt;&lt;p style=&quot;margin:0px;margin-left:8px;text-align:left;&quot;&gt;DRAW&lt;/p&gt;" style="shape=rect;html=1;overflow=fill;whiteSpace=wrap;" parent="1" vertex="1">
          <mxGeometry x="270" y="1240" width="200" height="260" as="geometry" />
        </mxCell>
        <mxCell id="RmB8I1O6AhFz0H0aJWPY-14" value="&lt;p style=&quot;margin:0px;margin-top:4px;text-align:center;&quot;&gt;&amp;lt;&amp;lt;enumeration&amp;gt;&amp;gt;&lt;br&gt;&lt;b&gt;Colours&lt;/b&gt;&lt;/p&gt;&lt;hr&gt;&lt;p style=&quot;margin:0px;margin-left:8px;text-align:left;&quot;&gt;RED&lt;br&gt;BLUE&lt;/p&gt;&lt;p style=&quot;margin:0px;margin-left:8px;text-align:left;&quot;&gt;GREEN&lt;/p&gt;&lt;p style=&quot;margin:0px;margin-left:8px;text-align:left;&quot;&gt;YELLOW&lt;/p&gt;&lt;p style=&quot;margin:0px;margin-left:8px;text-align:left;&quot;&gt;WILD&lt;/p&gt;" style="shape=rect;html=1;overflow=fill;whiteSpace=wrap;" parent="1" vertex="1">
          <mxGeometry x="30" y="1240" width="200" height="150" as="geometry" />
        </mxCell>
        <mxCell id="RmB8I1O6AhFz0H0aJWPY-15" value="Hand" style="swimlane;fontStyle=1;align=center;verticalAlign=top;childLayout=stackLayout;horizontal=1;startSize=26;horizontalStack=0;resizeParent=1;resizeParentMax=0;resizeLast=0;collapsible=1;marginBottom=0;whiteSpace=wrap;html=1;" parent="1" vertex="1">
          <mxGeometry x="80" y="450" width="300" height="210" as="geometry" />
        </mxCell>
        <mxCell id="RmB8I1O6AhFz0H0aJWPY-16" value="- hand: ArrayList&amp;lt;Card&amp;gt;" style="text;strokeColor=none;fillColor=none;align=left;verticalAlign=top;spacingLeft=4;spacingRight=4;overflow=hidden;rotatable=0;points=[[0,0.5],[1,0.5]];portConstraint=eastwest;whiteSpace=wrap;html=1;" parent="RmB8I1O6AhFz0H0aJWPY-15" vertex="1">
          <mxGeometry y="26" width="300" height="26" as="geometry" />
        </mxCell>
        <mxCell id="RmB8I1O6AhFz0H0aJWPY-17" value="" style="line;strokeWidth=1;fillColor=none;align=left;verticalAlign=middle;spacingTop=-1;spacingLeft=3;spacingRight=3;rotatable=0;labelPosition=right;points=[];portConstraint=eastwest;strokeColor=inherit;" parent="RmB8I1O6AhFz0H0aJWPY-15" vertex="1">
          <mxGeometry y="52" width="300" height="8" as="geometry" />
        </mxCell>
        <mxCell id="RmB8I1O6AhFz0H0aJWPY-18" value="+ Hand()&lt;br&gt;+ getHand(): ArrayList&amp;lt;Card&amp;gt;&lt;br style=&quot;border-color: var(--border-color);&quot;&gt;+ addCard(card:&amp;nbsp;Card): void&lt;br style=&quot;border-color: var(--border-color);&quot;&gt;+ removeCard(card:&amp;nbsp;Card): bool&lt;br style=&quot;border-color: var(--border-color);&quot;&gt;+ getHand(): ArrayList&amp;lt;Card&amp;gt;&lt;br style=&quot;border-color: var(--border-color);&quot;&gt;+ isHandEmpty(): bool&lt;br&gt;+ handSize(): int&lt;br&gt;+ getCard(index: int): Card" style="text;strokeColor=none;fillColor=none;align=left;verticalAlign=top;spacingLeft=4;spacingRight=4;overflow=hidden;rotatable=0;points=[[0,0.5],[1,0.5]];portConstraint=eastwest;whiteSpace=wrap;html=1;" parent="RmB8I1O6AhFz0H0aJWPY-15" vertex="1">
          <mxGeometry y="60" width="300" height="150" as="geometry" />
        </mxCell>
        <mxCell id="RmB8I1O6AhFz0H0aJWPY-19" value="Player" style="swimlane;fontStyle=1;align=center;verticalAlign=top;childLayout=stackLayout;horizontal=1;startSize=26;horizontalStack=0;resizeParent=1;resizeParentMax=0;resizeLast=0;collapsible=1;marginBottom=0;whiteSpace=wrap;html=1;" parent="1" vertex="1">
          <mxGeometry x="160" y="40" width="240" height="300" as="geometry" />
        </mxCell>
        <mxCell id="RmB8I1O6AhFz0H0aJWPY-20" value="- myHand: Hand&lt;br&gt;- points: int&lt;br&gt;- name: String" style="text;strokeColor=none;fillColor=none;align=left;verticalAlign=top;spacingLeft=4;spacingRight=4;overflow=hidden;rotatable=0;points=[[0,0.5],[1,0.5]];portConstraint=eastwest;whiteSpace=wrap;html=1;" parent="RmB8I1O6AhFz0H0aJWPY-19" vertex="1">
          <mxGeometry y="26" width="240" height="74" as="geometry" />
        </mxCell>
        <mxCell id="RmB8I1O6AhFz0H0aJWPY-21" value="" style="line;strokeWidth=1;fillColor=none;align=left;verticalAlign=middle;spacingTop=-1;spacingLeft=3;spacingRight=3;rotatable=0;labelPosition=right;points=[];portConstraint=eastwest;strokeColor=inherit;" parent="RmB8I1O6AhFz0H0aJWPY-19" vertex="1">
          <mxGeometry y="100" width="240" height="8" as="geometry" />
        </mxCell>
        <mxCell id="RmB8I1O6AhFz0H0aJWPY-22" value="+ Player(name: String)&lt;br&gt;+ drawCard(pile : CardPile): void&lt;br&gt;+ showHand(): void&lt;br&gt;+ addPoints(points: int): void&lt;br&gt;+ getPoints(): int&lt;br style=&quot;border-color: var(--border-color);&quot;&gt;+ getName(): String&lt;br&gt;+ getHand(): Hand&lt;br&gt;+ callUno(): boolean&lt;br&gt;+ isHandEmpty() : boolean&lt;br&gt;+ pointsInHand() : int" style="text;strokeColor=none;fillColor=none;align=left;verticalAlign=top;spacingLeft=4;spacingRight=4;overflow=hidden;rotatable=0;points=[[0,0.5],[1,0.5]];portConstraint=eastwest;whiteSpace=wrap;html=1;" parent="RmB8I1O6AhFz0H0aJWPY-19" vertex="1">
          <mxGeometry y="108" width="240" height="192" as="geometry" />
        </mxCell>
        <mxCell id="RmB8I1O6AhFz0H0aJWPY-23" value="UNOController" style="swimlane;fontStyle=1;align=center;verticalAlign=top;childLayout=stackLayout;horizontal=1;startSize=26;horizontalStack=0;resizeParent=1;resizeParentMax=0;resizeLast=0;collapsible=1;marginBottom=0;whiteSpace=wrap;html=1;" parent="1" vertex="1">
          <mxGeometry x="830" y="240" width="290" height="160" as="geometry" />
        </mxCell>
        <mxCell id="RmB8I1O6AhFz0H0aJWPY-24" value="- model: UNOModel" style="text;strokeColor=none;fillColor=none;align=left;verticalAlign=top;spacingLeft=4;spacingRight=4;overflow=hidden;rotatable=0;points=[[0,0.5],[1,0.5]];portConstraint=eastwest;whiteSpace=wrap;html=1;" parent="RmB8I1O6AhFz0H0aJWPY-23" vertex="1">
          <mxGeometry y="26" width="290" height="26" as="geometry" />
        </mxCell>
        <mxCell id="RmB8I1O6AhFz0H0aJWPY-25" value="" style="line;strokeWidth=1;fillColor=none;align=left;verticalAlign=middle;spacingTop=-1;spacingLeft=3;spacingRight=3;rotatable=0;labelPosition=right;points=[];portConstraint=eastwest;strokeColor=inherit;" parent="RmB8I1O6AhFz0H0aJWPY-23" vertex="1">
          <mxGeometry y="52" width="290" height="8" as="geometry" />
        </mxCell>
        <mxCell id="RmB8I1O6AhFz0H0aJWPY-26" value="+ UNOController(model: UNOModel)&lt;br&gt;+ getWildColour(): Colours&lt;br&gt;+ askPlayers(): void&lt;br&gt;+userAction(): int&lt;br&gt;+userPlayCard(): int&lt;br&gt;+askPLayDraw(): int" style="text;strokeColor=none;fillColor=none;align=left;verticalAlign=top;spacingLeft=4;spacingRight=4;overflow=hidden;rotatable=0;points=[[0,0.5],[1,0.5]];portConstraint=eastwest;whiteSpace=wrap;html=1;" parent="RmB8I1O6AhFz0H0aJWPY-23" vertex="1">
          <mxGeometry y="60" width="290" height="100" as="geometry" />
        </mxCell>
        <mxCell id="RmB8I1O6AhFz0H0aJWPY-27" value="UNOEvent" style="swimlane;fontStyle=1;align=center;verticalAlign=top;childLayout=stackLayout;horizontal=1;startSize=26;horizontalStack=0;resizeParent=1;resizeParentMax=0;resizeLast=0;collapsible=1;marginBottom=0;whiteSpace=wrap;html=1;" parent="1" vertex="1">
          <mxGeometry x="1340" y="160" width="320" height="160" as="geometry" />
        </mxCell>
        <mxCell id="RmB8I1O6AhFz0H0aJWPY-28" value="- player: Player&lt;br&gt;- pile: CardPile" style="text;strokeColor=none;fillColor=none;align=left;verticalAlign=top;spacingLeft=4;spacingRight=4;overflow=hidden;rotatable=0;points=[[0,0.5],[1,0.5]];portConstraint=eastwest;whiteSpace=wrap;html=1;" parent="RmB8I1O6AhFz0H0aJWPY-27" vertex="1">
          <mxGeometry y="26" width="320" height="44" as="geometry" />
        </mxCell>
        <mxCell id="RmB8I1O6AhFz0H0aJWPY-29" value="" style="line;strokeWidth=1;fillColor=none;align=left;verticalAlign=middle;spacingTop=-1;spacingLeft=3;spacingRight=3;rotatable=0;labelPosition=right;points=[];portConstraint=eastwest;strokeColor=inherit;" parent="RmB8I1O6AhFz0H0aJWPY-27" vertex="1">
          <mxGeometry y="70" width="320" height="8" as="geometry" />
        </mxCell>
        <mxCell id="RmB8I1O6AhFz0H0aJWPY-30" value="+ UNOEvent(model: UNOModel, player: Player)&lt;br&gt;+ UNOEvent(model: UNOModel, pile: CardPile)&lt;br&gt;+ getPlayer(): Player&lt;br&gt;+ getCardPile(): CardPile" style="text;strokeColor=none;fillColor=none;align=left;verticalAlign=top;spacingLeft=4;spacingRight=4;overflow=hidden;rotatable=0;points=[[0,0.5],[1,0.5]];portConstraint=eastwest;whiteSpace=wrap;html=1;" parent="RmB8I1O6AhFz0H0aJWPY-27" vertex="1">
          <mxGeometry y="78" width="320" height="82" as="geometry" />
        </mxCell>
        <mxCell id="RmB8I1O6AhFz0H0aJWPY-31" value="EventObject" style="swimlane;fontStyle=1;align=center;verticalAlign=top;childLayout=stackLayout;horizontal=1;startSize=26;horizontalStack=0;resizeParent=1;resizeParentMax=0;resizeLast=0;collapsible=1;marginBottom=0;whiteSpace=wrap;html=1;" parent="1" vertex="1">
          <mxGeometry x="1390" y="-50" width="200" height="120" as="geometry" />
        </mxCell>
        <mxCell id="RmB8I1O6AhFz0H0aJWPY-32" value="# source: Object" style="text;strokeColor=none;fillColor=none;align=left;verticalAlign=top;spacingLeft=4;spacingRight=4;overflow=hidden;rotatable=0;points=[[0,0.5],[1,0.5]];portConstraint=eastwest;whiteSpace=wrap;html=1;" parent="RmB8I1O6AhFz0H0aJWPY-31" vertex="1">
          <mxGeometry y="26" width="200" height="26" as="geometry" />
        </mxCell>
        <mxCell id="RmB8I1O6AhFz0H0aJWPY-33" value="" style="line;strokeWidth=1;fillColor=none;align=left;verticalAlign=middle;spacingTop=-1;spacingLeft=3;spacingRight=3;rotatable=0;labelPosition=right;points=[];portConstraint=eastwest;strokeColor=inherit;" parent="RmB8I1O6AhFz0H0aJWPY-31" vertex="1">
          <mxGeometry y="52" width="200" height="8" as="geometry" />
        </mxCell>
        <mxCell id="RmB8I1O6AhFz0H0aJWPY-34" value="+ EventObject(source: Object)&lt;br&gt;+ getSource(): Object&lt;br&gt;+ toString(): String" style="text;strokeColor=none;fillColor=none;align=left;verticalAlign=top;spacingLeft=4;spacingRight=4;overflow=hidden;rotatable=0;points=[[0,0.5],[1,0.5]];portConstraint=eastwest;whiteSpace=wrap;html=1;" parent="RmB8I1O6AhFz0H0aJWPY-31" vertex="1">
          <mxGeometry y="60" width="200" height="60" as="geometry" />
        </mxCell>
        <mxCell id="RmB8I1O6AhFz0H0aJWPY-35" value="Extends" style="endArrow=block;endSize=16;endFill=0;html=1;rounded=0;exitX=0.42;exitY=-0.034;exitDx=0;exitDy=0;exitPerimeter=0;" parent="1" source="RmB8I1O6AhFz0H0aJWPY-27" edge="1">
          <mxGeometry width="160" relative="1" as="geometry">
            <mxPoint x="1509" y="100" as="sourcePoint" />
            <mxPoint x="1474" y="70" as="targetPoint" />
          </mxGeometry>
        </mxCell>
        <mxCell id="RmB8I1O6AhFz0H0aJWPY-36" value="UNOModel" style="swimlane;fontStyle=1;align=center;verticalAlign=top;childLayout=stackLayout;horizontal=1;startSize=26;horizontalStack=0;resizeParent=1;resizeParentMax=0;resizeLast=0;collapsible=1;marginBottom=0;whiteSpace=wrap;html=1;" parent="1" vertex="1">
          <mxGeometry x="790" y="470" width="370" height="430" as="geometry" />
        </mxCell>
        <mxCell id="RmB8I1O6AhFz0H0aJWPY-37" value="- views: ArrayList&amp;lt;UNOModelView&amp;gt;&lt;br&gt;- players: ArrayList&amp;lt;Player&amp;gt;&lt;br&gt;- drawPile: CardPile&lt;br&gt;- discardPile: CardPile&lt;br&gt;- turn: Player&lt;br&gt;- lastCardPlayed: Card&lt;br&gt;- direction: boolean&lt;br&gt;- random: Random&lt;br&gt;- controller: UNOController" style="text;strokeColor=none;fillColor=none;align=left;verticalAlign=top;spacingLeft=4;spacingRight=4;overflow=hidden;rotatable=0;points=[[0,0.5],[1,0.5]];portConstraint=eastwest;whiteSpace=wrap;html=1;" parent="RmB8I1O6AhFz0H0aJWPY-36" vertex="1">
          <mxGeometry y="26" width="370" height="144" as="geometry" />
        </mxCell>
        <mxCell id="RmB8I1O6AhFz0H0aJWPY-38" value="" style="line;strokeWidth=1;fillColor=none;align=left;verticalAlign=middle;spacingTop=-1;spacingLeft=3;spacingRight=3;rotatable=0;labelPosition=right;points=[];portConstraint=eastwest;strokeColor=inherit;" parent="RmB8I1O6AhFz0H0aJWPY-36" vertex="1">
          <mxGeometry y="170" width="370" height="8" as="geometry" />
        </mxCell>
        <mxCell id="RmB8I1O6AhFz0H0aJWPY-39" value="+ UNOModel()&lt;br&gt;+ addUNOView(view: UNOModelView): void&lt;br&gt;+ removeUNOView(view: UNOModelView): void&lt;br&gt;- addPlayer(name: String): void&lt;br&gt;- gameWinner(): void&lt;br&gt;- roundWinner(): void&lt;br&gt;+ getPlayersPointsString(): String&lt;br&gt;- start(): void&lt;br&gt;- nextTurn(): void&lt;br&gt;- nextRound(): void&lt;br&gt;-checkDrawPile(): boolean&lt;br&gt;-drawCard(player: Player): void&lt;br&gt;+ playGame(): void&lt;br&gt;- playCard(card: Card): void&lt;br&gt;-&amp;nbsp; isValidCard(card: Card): boolean&lt;br&gt;- playNumbered(card: Card): void&lt;br&gt;- playSpecial(card: Card): void&lt;br&gt;- playWild(card: Card): void" style="text;strokeColor=none;fillColor=none;align=left;verticalAlign=top;spacingLeft=4;spacingRight=4;overflow=hidden;rotatable=0;points=[[0,0.5],[1,0.5]];portConstraint=eastwest;whiteSpace=wrap;html=1;" parent="RmB8I1O6AhFz0H0aJWPY-36" vertex="1">
          <mxGeometry y="178" width="370" height="252" as="geometry" />
        </mxCell>
        <mxCell id="RmB8I1O6AhFz0H0aJWPY-45" value="&amp;lt;&amp;lt;interface&amp;gt;&amp;gt;&lt;br&gt;&lt;b&gt;&lt;i&gt;UNOModelView&lt;/i&gt;&lt;/b&gt;" style="swimlane;fontStyle=0;childLayout=stackLayout;horizontal=1;startSize=30;fillColor=none;horizontalStack=0;resizeParent=1;resizeParentMax=0;resizeLast=0;collapsible=1;marginBottom=0;whiteSpace=wrap;html=1;" parent="1" vertex="1">
          <mxGeometry x="1330" y="480" width="320" height="150" as="geometry" />
        </mxCell>
        <mxCell id="RmB8I1O6AhFz0H0aJWPY-46" value="+ handleUNOTurnUpdate(e: UNOEvent): void&lt;br&gt;+ handleUNODrawUpdate(e: UNOEvent): void&lt;br&gt;+ handleUNODiscardUpdate(e: UNOEvent): void&lt;br&gt;+ handleUNORoundUpdate(e: UNOEvent): void&lt;br&gt;+ handleUNOGameUpdate(e: UNOEvent): void&lt;br&gt;+ handleUNOShowAllPoints(e: UNOEvent): void&lt;br&gt;+ handleUNOHelpUpdate(e: UNOEvent): void&lt;br&gt;+handleUNONoDraw(): void" style="text;strokeColor=none;fillColor=none;align=left;verticalAlign=top;spacingLeft=4;spacingRight=4;overflow=hidden;rotatable=0;points=[[0,0.5],[1,0.5]];portConstraint=eastwest;whiteSpace=wrap;html=1;" parent="RmB8I1O6AhFz0H0aJWPY-45" vertex="1">
          <mxGeometry y="30" width="320" height="120" as="geometry" />
        </mxCell>
        <mxCell id="RmB8I1O6AhFz0H0aJWPY-49" value="UNOView" style="swimlane;fontStyle=1;align=center;verticalAlign=top;childLayout=stackLayout;horizontal=1;startSize=26;horizontalStack=0;resizeParent=1;resizeParentMax=0;resizeLast=0;collapsible=1;marginBottom=0;whiteSpace=wrap;html=1;" parent="1" vertex="1">
          <mxGeometry x="1300" y="730" width="380" height="330" as="geometry" />
        </mxCell>
        <mxCell id="RmB8I1O6AhFz0H0aJWPY-50" value="- model: UNOModel" style="text;strokeColor=none;fillColor=none;align=left;verticalAlign=top;spacingLeft=4;spacingRight=4;overflow=hidden;rotatable=0;points=[[0,0.5],[1,0.5]];portConstraint=eastwest;whiteSpace=wrap;html=1;" parent="RmB8I1O6AhFz0H0aJWPY-49" vertex="1">
          <mxGeometry y="26" width="380" height="26" as="geometry" />
        </mxCell>
        <mxCell id="RmB8I1O6AhFz0H0aJWPY-51" value="" style="line;strokeWidth=1;fillColor=none;align=left;verticalAlign=middle;spacingTop=-1;spacingLeft=3;spacingRight=3;rotatable=0;labelPosition=right;points=[];portConstraint=eastwest;strokeColor=inherit;" parent="RmB8I1O6AhFz0H0aJWPY-49" vertex="1">
          <mxGeometry y="52" width="380" height="8" as="geometry" />
        </mxCell>
        <mxCell id="RmB8I1O6AhFz0H0aJWPY-52" value="+ UNOView()&lt;br&gt;+ showTurnHand(player: Player): void&lt;br&gt;+ showDrawnCard(pile: CardPile): void&lt;br&gt;+ showDiscardedCard(pile: CardPile): void&lt;br&gt;+ showGameWinner(name: String, points: int): void&lt;br&gt;+ showRoundWinner(name: String, points:int): void&lt;br&gt;+ showAllPoints(model: UNOModel): void&lt;br&gt;&lt;u&gt;+ showHelp(): void&lt;br&gt;+showNoDraw(): void&lt;br&gt;&lt;/u&gt;+ handleUNOTurnUpdate(e: UNOEvent): void&lt;br style=&quot;border-color: var(--border-color);&quot;&gt;+ handleUNODrawUpdate(e: UNOEvent): void&lt;br style=&quot;border-color: var(--border-color);&quot;&gt;+ handleUNODiscardUpdate(e: UNOEvent): void&lt;br style=&quot;border-color: var(--border-color);&quot;&gt;+ handleUNORoundUpdate(e: UNOEvent): void&lt;br style=&quot;border-color: var(--border-color);&quot;&gt;+ handleUNOGameUpdate(e: UNOEvent): void&lt;br style=&quot;border-color: var(--border-color);&quot;&gt;+ handleUNOShowAllPoints(e: UNOEvent): void&lt;br style=&quot;border-color: var(--border-color);&quot;&gt;+ handleUNOHelpUpdate(e: UNOEvent): void&lt;br&gt;&lt;u&gt;+handleUNONoDraw(): void&lt;br&gt;+ main(args: String[])&lt;/u&gt;" style="text;strokeColor=none;fillColor=none;align=left;verticalAlign=top;spacingLeft=4;spacingRight=4;overflow=hidden;rotatable=0;points=[[0,0.5],[1,0.5]];portConstraint=eastwest;whiteSpace=wrap;html=1;" parent="RmB8I1O6AhFz0H0aJWPY-49" vertex="1">
          <mxGeometry y="60" width="380" height="270" as="geometry" />
        </mxCell>
        <mxCell id="RmB8I1O6AhFz0H0aJWPY-53" value="" style="endArrow=diamondThin;endFill=1;endSize=24;html=1;rounded=0;entryX=0.883;entryY=1.007;entryDx=0;entryDy=0;entryPerimeter=0;exitX=0.5;exitY=0;exitDx=0;exitDy=0;" parent="1" source="RmB8I1O6AhFz0H0aJWPY-13" target="RmB8I1O6AhFz0H0aJWPY-4" edge="1">
          <mxGeometry width="160" relative="1" as="geometry">
            <mxPoint x="480" y="1200" as="sourcePoint" />
            <mxPoint x="640" y="1200" as="targetPoint" />
          </mxGeometry>
        </mxCell>
        <mxCell id="RmB8I1O6AhFz0H0aJWPY-54" value="" style="endArrow=diamondThin;endFill=1;endSize=24;html=1;rounded=0;entryX=0.166;entryY=1.032;entryDx=0;entryDy=0;entryPerimeter=0;exitX=0.5;exitY=0;exitDx=0;exitDy=0;" parent="1" source="RmB8I1O6AhFz0H0aJWPY-14" target="RmB8I1O6AhFz0H0aJWPY-4" edge="1">
          <mxGeometry width="160" relative="1" as="geometry">
            <mxPoint x="380" y="1250" as="sourcePoint" />
            <mxPoint x="362" y="1201" as="targetPoint" />
          </mxGeometry>
        </mxCell>
        <mxCell id="RmB8I1O6AhFz0H0aJWPY-55" value="" style="endArrow=diamondThin;endFill=0;endSize=24;html=1;rounded=0;exitX=0.888;exitY=-0.003;exitDx=0;exitDy=0;exitPerimeter=0;entryX=0.115;entryY=0.984;entryDx=0;entryDy=0;entryPerimeter=0;" parent="1" source="RmB8I1O6AhFz0H0aJWPY-1" target="RmB8I1O6AhFz0H0aJWPY-8" edge="1">
          <mxGeometry width="160" relative="1" as="geometry">
            <mxPoint x="510" y="860" as="sourcePoint" />
            <mxPoint x="343" y="920" as="targetPoint" />
          </mxGeometry>
        </mxCell>
        <mxCell id="RmB8I1O6AhFz0H0aJWPY-56" value="&lt;b&gt;&lt;font style=&quot;font-size: 18px;&quot;&gt;*&lt;/font&gt;&lt;/b&gt;" style="text;strokeColor=none;align=center;fillColor=none;html=1;verticalAlign=middle;whiteSpace=wrap;rounded=0;" parent="1" vertex="1">
          <mxGeometry x="320" y="970" width="20" height="20" as="geometry" />
        </mxCell>
        <mxCell id="RmB8I1O6AhFz0H0aJWPY-57" value="" style="endArrow=diamondThin;endFill=0;endSize=24;html=1;rounded=0;exitX=0.228;exitY=-0.003;exitDx=0;exitDy=0;exitPerimeter=0;entryX=0.349;entryY=1.014;entryDx=0;entryDy=0;entryPerimeter=0;" parent="1" source="RmB8I1O6AhFz0H0aJWPY-1" target="RmB8I1O6AhFz0H0aJWPY-18" edge="1">
          <mxGeometry width="160" relative="1" as="geometry">
            <mxPoint x="510" y="860" as="sourcePoint" />
            <mxPoint x="185" y="710" as="targetPoint" />
          </mxGeometry>
        </mxCell>
        <mxCell id="RmB8I1O6AhFz0H0aJWPY-58" value="&lt;b&gt;&lt;font style=&quot;font-size: 18px;&quot;&gt;*&lt;/font&gt;&lt;/b&gt;" style="text;strokeColor=none;align=center;fillColor=none;html=1;verticalAlign=middle;whiteSpace=wrap;rounded=0;" parent="1" vertex="1">
          <mxGeometry x="160" y="960" width="20" height="20" as="geometry" />
        </mxCell>
        <mxCell id="RmB8I1O6AhFz0H0aJWPY-5" value="CardPile" style="swimlane;fontStyle=1;align=center;verticalAlign=top;childLayout=stackLayout;horizontal=1;startSize=30;horizontalStack=0;resizeParent=1;resizeParentMax=0;resizeLast=0;collapsible=1;marginBottom=0;whiteSpace=wrap;html=1;" parent="1" vertex="1">
          <mxGeometry x="310" y="690" width="280" height="230" as="geometry" />
        </mxCell>
        <mxCell id="RmB8I1O6AhFz0H0aJWPY-6" value="- deck: Stack&amp;lt;Card&amp;gt;" style="text;strokeColor=none;fillColor=none;align=left;verticalAlign=top;spacingLeft=4;spacingRight=4;overflow=hidden;rotatable=0;points=[[0,0.5],[1,0.5]];portConstraint=eastwest;whiteSpace=wrap;html=1;" parent="RmB8I1O6AhFz0H0aJWPY-5" vertex="1">
          <mxGeometry y="30" width="280" height="30" as="geometry" />
        </mxCell>
        <mxCell id="RmB8I1O6AhFz0H0aJWPY-7" value="" style="line;strokeWidth=1;fillColor=none;align=left;verticalAlign=middle;spacingTop=-1;spacingLeft=3;spacingRight=3;rotatable=0;labelPosition=right;points=[];portConstraint=eastwest;strokeColor=inherit;" parent="RmB8I1O6AhFz0H0aJWPY-5" vertex="1">
          <mxGeometry y="60" width="280" height="8" as="geometry" />
        </mxCell>
        <mxCell id="RmB8I1O6AhFz0H0aJWPY-8" value="+ CardPile()&lt;br style=&quot;border-color: var(--border-color);&quot;&gt;+ newFullDeck(): void&lt;br style=&quot;border-color: var(--border-color);&quot;&gt;+ newEmptyDeck(): void&lt;br style=&quot;border-color: var(--border-color);&quot;&gt;+ newSingleDeck(card: Card): void&lt;br style=&quot;border-color: var(--border-color);&quot;&gt;+ addCard(): void&lt;br style=&quot;border-color: var(--border-color);&quot;&gt;+ removeTop(): void&lt;br style=&quot;border-color: var(--border-color);&quot;&gt;+ getTop() :&amp;nbsp;Card&lt;br style=&quot;border-color: var(--border-color);&quot;&gt;+ showTop() : Card&lt;br style=&quot;border-color: var(--border-color);&quot;&gt;+ shuffle() : void" style="text;strokeColor=none;fillColor=none;align=left;verticalAlign=top;spacingLeft=4;spacingRight=4;overflow=hidden;rotatable=0;points=[[0,0.5],[1,0.5]];portConstraint=eastwest;whiteSpace=wrap;html=1;" parent="RmB8I1O6AhFz0H0aJWPY-5" vertex="1">
          <mxGeometry y="68" width="280" height="162" as="geometry" />
        </mxCell>
        <mxCell id="RmB8I1O6AhFz0H0aJWPY-61" value="" style="endArrow=diamondThin;endFill=0;endSize=24;html=1;rounded=0;entryX=0.594;entryY=1.013;entryDx=0;entryDy=0;entryPerimeter=0;exitX=0.75;exitY=0;exitDx=0;exitDy=0;" parent="1" source="RmB8I1O6AhFz0H0aJWPY-15" target="RmB8I1O6AhFz0H0aJWPY-22" edge="1">
          <mxGeometry width="160" relative="1" as="geometry">
            <mxPoint x="534" y="660" as="sourcePoint" />
            <mxPoint x="720" y="610" as="targetPoint" />
          </mxGeometry>
        </mxCell>
        <mxCell id="RmB8I1O6AhFz0H0aJWPY-63" value="" style="endArrow=diamondThin;endFill=0;endSize=24;html=1;rounded=0;exitX=0.85;exitY=0.005;exitDx=0;exitDy=0;exitPerimeter=0;" parent="1" source="RmB8I1O6AhFz0H0aJWPY-5" edge="1">
          <mxGeometry width="160" relative="1" as="geometry">
            <mxPoint x="440" y="500" as="sourcePoint" />
            <mxPoint x="790" y="610" as="targetPoint" />
            <Array as="points">
              <mxPoint x="550" y="610" />
            </Array>
          </mxGeometry>
        </mxCell>
        <mxCell id="RmB8I1O6AhFz0H0aJWPY-64" value="&lt;b&gt;&lt;font style=&quot;font-size: 18px;&quot;&gt;*&lt;/font&gt;&lt;/b&gt;" style="text;strokeColor=none;align=center;fillColor=none;html=1;verticalAlign=middle;whiteSpace=wrap;rounded=0;" parent="1" vertex="1">
          <mxGeometry x="530" y="670" width="20" height="20" as="geometry" />
        </mxCell>
        <mxCell id="RmB8I1O6AhFz0H0aJWPY-66" value="" style="endArrow=block;dashed=1;endFill=0;endSize=12;html=1;rounded=0;entryX=0.466;entryY=1.031;entryDx=0;entryDy=0;entryPerimeter=0;exitX=0.467;exitY=0.004;exitDx=0;exitDy=0;exitPerimeter=0;" parent="1" source="RmB8I1O6AhFz0H0aJWPY-49" target="RmB8I1O6AhFz0H0aJWPY-46" edge="1">
          <mxGeometry width="160" relative="1" as="geometry">
            <mxPoint x="1180" y="800" as="sourcePoint" />
            <mxPoint x="1340" y="800" as="targetPoint" />
          </mxGeometry>
        </mxCell>
        <mxCell id="RmB8I1O6AhFz0H0aJWPY-67" value="" style="endArrow=diamondThin;endFill=0;endSize=24;html=1;rounded=0;" parent="1" edge="1">
          <mxGeometry width="160" relative="1" as="geometry">
            <mxPoint x="400" y="320" as="sourcePoint" />
            <mxPoint x="790" y="540" as="targetPoint" />
            <Array as="points">
              <mxPoint x="560" y="320" />
              <mxPoint x="560" y="540" />
            </Array>
          </mxGeometry>
        </mxCell>
        <mxCell id="RmB8I1O6AhFz0H0aJWPY-68" value="&lt;b&gt;&lt;font style=&quot;font-size: 18px;&quot;&gt;*&lt;/font&gt;&lt;/b&gt;" style="text;strokeColor=none;align=center;fillColor=none;html=1;verticalAlign=middle;whiteSpace=wrap;rounded=0;" parent="1" vertex="1">
          <mxGeometry x="405" y="320" width="20" height="20" as="geometry" />
        </mxCell>
        <mxCell id="RmB8I1O6AhFz0H0aJWPY-70" value="" style="endArrow=diamondThin;endFill=0;endSize=24;html=1;rounded=0;exitX=0.002;exitY=0.198;exitDx=0;exitDy=0;exitPerimeter=0;entryX=1.003;entryY=0.255;entryDx=0;entryDy=0;entryPerimeter=0;" parent="1" source="RmB8I1O6AhFz0H0aJWPY-46" target="RmB8I1O6AhFz0H0aJWPY-37" edge="1">
          <mxGeometry width="160" relative="1" as="geometry">
            <mxPoint x="890" y="630" as="sourcePoint" />
            <mxPoint x="1050" y="630" as="targetPoint" />
          </mxGeometry>
        </mxCell>
        <mxCell id="RmB8I1O6AhFz0H0aJWPY-71" value="" style="endArrow=diamondThin;endFill=0;endSize=24;html=1;rounded=0;exitX=1.005;exitY=0.106;exitDx=0;exitDy=0;exitPerimeter=0;" parent="1" source="RmB8I1O6AhFz0H0aJWPY-22" edge="1">
          <mxGeometry width="160" relative="1" as="geometry">
            <mxPoint x="1020" y="170" as="sourcePoint" />
            <mxPoint x="1340" y="170" as="targetPoint" />
          </mxGeometry>
        </mxCell>
        <mxCell id="RmB8I1O6AhFz0H0aJWPY-72" value="&lt;b&gt;&lt;font style=&quot;font-size: 18px;&quot;&gt;*&lt;/font&gt;&lt;/b&gt;" style="text;strokeColor=none;align=center;fillColor=none;html=1;verticalAlign=middle;whiteSpace=wrap;rounded=0;" parent="1" vertex="1">
          <mxGeometry x="1300" y="540" width="20" height="20" as="geometry" />
        </mxCell>
        <mxCell id="RmB8I1O6AhFz0H0aJWPY-74" value="" style="endArrow=diamondThin;endFill=0;endSize=24;html=1;rounded=0;exitX=0.638;exitY=0.006;exitDx=0;exitDy=0;exitPerimeter=0;" parent="1" source="RmB8I1O6AhFz0H0aJWPY-5" edge="1">
          <mxGeometry width="160" relative="1" as="geometry">
            <mxPoint x="470" y="560" as="sourcePoint" />
            <mxPoint x="1340" y="200" as="targetPoint" />
            <Array as="points">
              <mxPoint x="490" y="200" />
            </Array>
          </mxGeometry>
        </mxCell>
        <mxCell id="RmB8I1O6AhFz0H0aJWPY-75" value="" style="endArrow=diamondThin;endFill=1;endSize=24;html=1;rounded=0;entryX=0.001;entryY=0.955;entryDx=0;entryDy=0;entryPerimeter=0;exitX=1.01;exitY=0.028;exitDx=0;exitDy=0;exitPerimeter=0;" parent="1" source="RmB8I1O6AhFz0H0aJWPY-37" target="RmB8I1O6AhFz0H0aJWPY-28" edge="1">
          <mxGeometry width="160" relative="1" as="geometry">
            <mxPoint x="1180" y="500" as="sourcePoint" />
            <mxPoint x="1310" y="220" as="targetPoint" />
            <Array as="points">
              <mxPoint x="1240" y="500" />
              <mxPoint x="1240" y="230" />
            </Array>
          </mxGeometry>
        </mxCell>
        <mxCell id="RmB8I1O6AhFz0H0aJWPY-76" value="" style="endArrow=diamondThin;endFill=1;endSize=24;html=1;rounded=0;entryX=0.499;entryY=1.097;entryDx=0;entryDy=0;entryPerimeter=0;exitX=0.5;exitY=0;exitDx=0;exitDy=0;" parent="1" source="RmB8I1O6AhFz0H0aJWPY-36" target="RmB8I1O6AhFz0H0aJWPY-26" edge="1">
          <mxGeometry width="160" relative="1" as="geometry">
            <mxPoint x="760" y="560" as="sourcePoint" />
            <mxPoint x="920" y="560" as="targetPoint" />
          </mxGeometry>
        </mxCell>
        <mxCell id="RmB8I1O6AhFz0H0aJWPY-77" value="" style="endArrow=diamondThin;endFill=0;endSize=24;html=1;rounded=0;exitX=1;exitY=0.5;exitDx=0;exitDy=0;" parent="1" source="RmB8I1O6AhFz0H0aJWPY-2" edge="1">
          <mxGeometry width="160" relative="1" as="geometry">
            <mxPoint x="400" y="1060" as="sourcePoint" />
            <mxPoint x="780" y="747" as="targetPoint" />
            <Array as="points">
              <mxPoint x="680" y="1038" />
              <mxPoint x="680" y="747" />
            </Array>
          </mxGeometry>
        </mxCell>
        <mxCell id="RmB8I1O6AhFz0H0aJWPY-78" value="" style="endArrow=diamondThin;endFill=0;endSize=24;html=1;rounded=0;entryX=0.671;entryY=-0.002;entryDx=0;entryDy=0;entryPerimeter=0;" parent="1" target="RmB8I1O6AhFz0H0aJWPY-36" edge="1">
          <mxGeometry width="160" relative="1" as="geometry">
            <mxPoint x="1038" y="400" as="sourcePoint" />
            <mxPoint x="1010" y="790" as="targetPoint" />
          </mxGeometry>
        </mxCell>
        <mxCell id="RmB8I1O6AhFz0H0aJWPY-79" value="&lt;b&gt;&lt;font style=&quot;font-size: 18px;&quot;&gt;*&lt;/font&gt;&lt;/b&gt;" style="text;strokeColor=none;align=center;fillColor=none;html=1;verticalAlign=middle;whiteSpace=wrap;rounded=0;" parent="1" vertex="1">
          <mxGeometry x="380" y="1010" width="20" height="20" as="geometry" />
        </mxCell>
        <mxCell id="RmB8I1O6AhFz0H0aJWPY-80" value="" style="endArrow=diamondThin;endFill=0;endSize=24;html=1;rounded=0;exitX=1.01;exitY=0.203;exitDx=0;exitDy=0;exitPerimeter=0;" parent="1" source="RmB8I1O6AhFz0H0aJWPY-30" edge="1">
          <mxGeometry width="160" relative="1" as="geometry">
            <mxPoint x="1680" y="260" as="sourcePoint" />
            <mxPoint x="1680" y="810" as="targetPoint" />
            <Array as="points">
              <mxPoint x="1840" y="255" />
              <mxPoint x="1840" y="810" />
            </Array>
          </mxGeometry>
        </mxCell>
        <mxCell id="RmB8I1O6AhFz0H0aJWPY-81" value="" style="endArrow=diamondThin;endFill=0;endSize=24;html=1;rounded=0;exitX=0.99;exitY=0.395;exitDx=0;exitDy=0;exitPerimeter=0;entryX=1.003;entryY=0.45;entryDx=0;entryDy=0;entryPerimeter=0;" parent="1" source="RmB8I1O6AhFz0H0aJWPY-30" target="RmB8I1O6AhFz0H0aJWPY-46" edge="1">
          <mxGeometry width="160" relative="1" as="geometry">
            <mxPoint x="910" y="680" as="sourcePoint" />
            <mxPoint x="1740" y="690" as="targetPoint" />
            <Array as="points">
              <mxPoint x="1820" y="272" />
              <mxPoint x="1820" y="565" />
            </Array>
          </mxGeometry>
        </mxCell>
        <mxCell id="RmB8I1O6AhFz0H0aJWPY-82" value="" style="endArrow=diamondThin;endFill=0;endSize=24;html=1;rounded=0;exitX=1;exitY=0.5;exitDx=0;exitDy=0;entryX=0;entryY=0.769;entryDx=0;entryDy=0;entryPerimeter=0;" parent="1" source="RmB8I1O6AhFz0H0aJWPY-39" target="RmB8I1O6AhFz0H0aJWPY-50" edge="1">
          <mxGeometry width="160" relative="1" as="geometry">
            <mxPoint x="1080" y="1050" as="sourcePoint" />
            <mxPoint x="1290" y="774" as="targetPoint" />
          </mxGeometry>
        </mxCell>
        <mxCell id="RmB8I1O6AhFz0H0aJWPY-83" value="" style="endArrow=diamondThin;endFill=0;endSize=24;html=1;rounded=0;exitX=0;exitY=0.5;exitDx=0;exitDy=0;entryX=-0.008;entryY=0.626;entryDx=0;entryDy=0;entryPerimeter=0;" parent="1" source="RmB8I1O6AhFz0H0aJWPY-22" target="RmB8I1O6AhFz0H0aJWPY-52" edge="1">
          <mxGeometry width="160" relative="1" as="geometry">
            <mxPoint x="930" y="540" as="sourcePoint" />
            <mxPoint x="970" y="1030" as="targetPoint" />
            <Array as="points">
              <mxPoint x="40" y="244" />
              <mxPoint x="40" y="957" />
            </Array>
          </mxGeometry>
        </mxCell>
        <mxCell id="RmB8I1O6AhFz0H0aJWPY-84" value="" style="endArrow=diamondThin;endFill=0;endSize=24;html=1;rounded=0;entryX=-0.003;entryY=0.415;entryDx=0;entryDy=0;exitX=1.028;exitY=0.89;exitDx=0;exitDy=0;exitPerimeter=0;entryPerimeter=0;" parent="1" source="RmB8I1O6AhFz0H0aJWPY-8" target="RmB8I1O6AhFz0H0aJWPY-52" edge="1">
          <mxGeometry width="160" relative="1" as="geometry">
            <mxPoint x="850" y="842" as="sourcePoint" />
            <mxPoint x="1010" y="842" as="targetPoint" />
          </mxGeometry>
        </mxCell>
      </root>
    </mxGraphModel>
  </diagram>
</mxfile>
